<mxfile host="app.diagrams.net" modified="2025-07-16" agent="APILinker Assistant" version="22.0.8">
  <diagram id="arch-01" name="Architecture">
    <mxGraphModel dx="1200" dy="800" grid="1" gridSize="10" guides="1" tooltips="1" connect="1" arrows="1" fold="1" page="1" pageScale="1" pageWidth="1600" pageHeight="1000" math="0" shadow="0">
      <root>
        <mxCell id="0"/>
        <mxCell id="1" parent="0"/>
        
        <mxCell id="source_api" value="Source API" style="rounded=1;whiteSpace=wrap;html=1;fillColor=#dae8fc;strokeColor=#6c8ebf;fontSize=14" vertex="1" parent="1">
          <mxGeometry x="40" y="200" width="140" height="60" as="geometry"/>
        </mxCell>
        
        <mxCell id="src_connector" value="ApiConnector (source)" style="rounded=1;whiteSpace=wrap;html=1;fillColor=#fff2cc;strokeColor=#d6b656;fontSize=13" vertex="1" parent="1">
          <mxGeometry x="220" y="190" width="180" height="80" as="geometry"/>
        </mxCell>
        
        <mxCell id="auth" value="AuthManager" style="rounded=1;whiteSpace=wrap;html=1;fillColor=#e1d5e7;strokeColor=#9673a6;fontSize=13" vertex="1" parent="1">
          <mxGeometry x="420" y="110" width="160" height="60" as="geometry"/>
        </mxCell>
        
        <mxCell id="mapper" value="FieldMapper + Transformers" style="rounded=1;whiteSpace=wrap;html=1;fillColor=#d5e8d4;strokeColor=#82b366;fontSize=13" vertex="1" parent="1">
          <mxGeometry x="420" y="190" width="220" height="80" as="geometry"/>
        </mxCell>
        
        <mxCell id="scheduler" value="Scheduler (cron/interval)" style="rounded=1;whiteSpace=wrap;html=1;fillColor=#f8cecc;strokeColor=#b85450;fontSize=13" vertex="1" parent="1">
          <mxGeometry x="420" y="280" width="220" height="60" as="geometry"/>
        </mxCell>
        
        <mxCell id="error" value="Error Handling (Retries, CB, DLQ)" style="rounded=1;whiteSpace=wrap;html=1;fillColor=#cce5ff;strokeColor=#4d79ff;fontSize=13" vertex="1" parent="1">
          <mxGeometry x="420" y="360" width="260" height="60" as="geometry"/>
        </mxCell>
        
        <mxCell id="logger" value="Logging / Analytics" style="rounded=1;whiteSpace=wrap;html=1;fillColor=#f5f5f5;strokeColor=#666666;fontSize=13" vertex="1" parent="1">
          <mxGeometry x="700" y="110" width="180" height="60" as="geometry"/>
        </mxCell>
        
        <mxCell id="tgt_connector" value="ApiConnector (target)" style="rounded=1;whiteSpace=wrap;html=1;fillColor=#fff2cc;strokeColor=#d6b656;fontSize=13" vertex="1" parent="1">
          <mxGeometry x="700" y="190" width="180" height="80" as="geometry"/>
        </mxCell>
        
        <mxCell id="target_api" value="Target API" style="rounded=1;whiteSpace=wrap;html=1;fillColor=#dae8fc;strokeColor=#6c8ebf;fontSize=14" vertex="1" parent="1">
          <mxGeometry x="920" y="200" width="140" height="60" as="geometry"/>
        </mxCell>
        
        <!-- Edges -->
        <mxCell id="e1" source="source_api" target="src_connector" style="edgeStyle=orthogonalEdgeStyle;rounded=0;endArrow=block;endFill=1;strokeColor=#6c8ebf" edge="1" parent="1">
          <mxGeometry relative="1" as="geometry"/>
        </mxCell>
        <mxCell id="e2" source="src_connector" target="mapper" style="edgeStyle=orthogonalEdgeStyle;rounded=0;endArrow=block;endFill=1;strokeColor=#999999" edge="1" parent="1">
          <mxGeometry relative="1" as="geometry"/>
        </mxCell>
        <mxCell id="e3" source="auth" target="src_connector" style="edgeStyle=orthogonalEdgeStyle;dashed=1;endArrow=block;endFill=1;strokeColor=#9673a6" edge="1" parent="1">
          <mxGeometry relative="1" as="geometry"/>
        </mxCell>
        <mxCell id="e4" source="mapper" target="tgt_connector" style="edgeStyle=orthogonalEdgeStyle;rounded=0;endArrow=block;endFill=1;strokeColor=#999999" edge="1" parent="1">
          <mxGeometry relative="1" as="geometry"/>
        </mxCell>
        <mxCell id="e5" source="scheduler" target="src_connector" style="edgeStyle=orthogonalEdgeStyle;dashed=1;endArrow=open;endFill=0;strokeColor=#b85450" edge="1" parent="1">
          <mxGeometry relative="1" as="geometry"/>
        </mxCell>
        <mxCell id="e6" source="scheduler" target="tgt_connector" style="edgeStyle=orthogonalEdgeStyle;dashed=1;endArrow=open;endFill=0;strokeColor=#b85450" edge="1" parent="1">
          <mxGeometry relative="1" as="geometry"/>
        </mxCell>
        <mxCell id="e7" source="src_connector" target="error" style="edgeStyle=orthogonalEdgeStyle;dashed=1;endArrow=open;endFill=0;strokeColor=#4d79ff" edge="1" parent="1">
          <mxGeometry relative="1" as="geometry"/>
        </mxCell>
        <mxCell id="e8" source="tgt_connector" target="error" style="edgeStyle=orthogonalEdgeStyle;dashed=1;endArrow=open;endFill=0;strokeColor=#4d79ff" edge="1" parent="1">
          <mxGeometry relative="1" as="geometry"/>
        </mxCell>
        <mxCell id="e9" source="tgt_connector" target="target_api" style="edgeStyle=orthogonalEdgeStyle;rounded=0;endArrow=block;endFill=1;strokeColor=#6c8ebf" edge="1" parent="1">
          <mxGeometry relative="1" as="geometry"/>
        </mxCell>
        <mxCell id="e10" source="logger" target="src_connector" style="edgeStyle=orthogonalEdgeStyle;dashed=1;endArrow=open;endFill=0;strokeColor=#666666" edge="1" parent="1">
          <mxGeometry relative="1" as="geometry"/>
        </mxCell>
        <mxCell id="e11" source="logger" target="tgt_connector" style="edgeStyle=orthogonalEdgeStyle;dashed=1;endArrow=open;endFill=0;strokeColor=#666666" edge="1" parent="1">
          <mxGeometry relative="1" as="geometry"/>
        </mxCell>
      </root>
    </mxGraphModel>
  </diagram>
  
</mxfile>


